<svg width="112" height="121" viewBox="0 0 112 121" fill="none" xmlns="http://www.w3.org/2000/svg">
<path d="M65.3333 25.2083C65.3333 22.5341 64.3499 19.9693 62.5996 18.0783C60.8493 16.1873 58.4753 15.125 55.9999 15.125C53.5246 15.125 51.1506 16.1873 49.4003 18.0783C47.6499 19.9693 46.6666 22.5341 46.6666 25.2083M89.8799 48.884L96.3433 94.259C96.5477 95.6951 96.4624 97.162 96.0933 98.5592C95.7242 99.9564 95.0799 101.251 94.2046 102.354C93.3293 103.457 92.2436 104.343 91.022 104.951C89.8003 105.558 88.4715 105.874 87.1266 105.875H24.8733C23.5276 105.875 22.1977 105.561 20.9749 104.954C19.7522 104.347 18.6653 103.461 17.789 102.358C16.9127 101.255 16.2676 99.9596 15.8979 98.5616C15.5282 97.1637 15.4427 95.696 15.6473 94.259L22.1106 48.884C22.4496 46.5023 23.567 44.3305 25.2603 42.7619C26.9535 41.1934 29.1108 40.3318 31.3413 40.3333H80.6586C82.8883 40.333 85.0444 41.1951 86.7367 42.7636C88.429 44.332 89.541 46.5031 89.8799 48.884Z" stroke="black" stroke-opacity="0.5" stroke-width="4" stroke-linecap="round" stroke-linejoin="round"/>
</svg>
