<svg width="64" height="64" viewBox="0 0 64 64" fill="none" xmlns="http://www.w3.org/2000/svg">
<path d="M58.6667 24V45.3334C58.6667 46.7479 58.1048 48.1044 57.1046 49.1046C56.1044 50.1048 54.7479 50.6667 53.3334 50.6667H10.6667C9.25222 50.6667 7.89567 50.1048 6.89547 49.1046C5.89528 48.1044 5.33337 46.7479 5.33337 45.3334V18.6667C5.33337 17.2522 5.89528 15.8957 6.89547 14.8955C7.89567 13.8953 9.25222 13.3334 10.6667 13.3334H53.3334C54.7479 13.3334 56.1044 13.8953 57.1046 14.8955C58.1048 15.8957 58.6667 17.2522 58.6667 18.6667V24ZM58.6667 24H16" stroke="black" stroke-width="4" stroke-linecap="round" stroke-linejoin="round"/>
<path d="M44 35.6854C44.5756 35.1706 45.2878 34.8334 46.0508 34.7145C46.8137 34.5956 47.5948 34.7 48.2997 35.0152C49.0046 35.3305 49.6032 35.843 50.0233 36.4909C50.4433 37.1389 50.6668 37.8946 50.6668 38.6668C50.6668 39.4389 50.4433 40.1946 50.0233 40.8426C49.6032 41.4905 49.0046 42.003 48.2997 42.3183C47.5948 42.6335 46.8137 42.738 46.0508 42.619C45.2878 42.5001 44.5756 42.1629 44 41.6481M44 35.6854C43.4245 35.1706 42.7122 34.8334 41.9493 34.7145C41.1863 34.5956 40.4052 34.7 39.7003 35.0152C38.9954 35.3305 38.3968 35.843 37.9768 36.4909C37.5568 37.1389 37.3333 37.8946 37.3333 38.6668C37.3333 39.4389 37.5568 40.1946 37.9768 40.8426C38.3968 41.4905 38.9954 42.003 39.7003 42.3183C40.4052 42.6335 41.1863 42.738 41.9493 42.619C42.7122 42.5001 43.4245 42.1629 44 41.6481" stroke="black" stroke-width="4" stroke-linecap="round" stroke-linejoin="round"/>
</svg>
