<svg width="32" height="32" viewBox="0 0 32 32" fill="none" xmlns="http://www.w3.org/2000/svg">
<g clip-path="url(#clip0_1_109)">
<path d="M26.0001 29.3334C26.5305 29.3334 27.0392 29.1227 27.4143 28.7476C27.7894 28.3725 28.0001 27.8638 28.0001 27.3334C28.0001 26.8029 27.7894 26.2942 27.4143 25.9192C27.0392 25.5441 26.5305 25.3334 26.0001 25.3334C25.4696 25.3334 24.9609 25.5441 24.5859 25.9192C24.2108 26.2942 24.0001 26.8029 24.0001 27.3334C24.0001 27.8638 24.2108 28.3725 24.5859 28.7476C24.9609 29.1227 25.4696 29.3334 26.0001 29.3334ZM12.6667 29.3334C13.1972 29.3334 13.7059 29.1227 14.081 28.7476C14.456 28.3725 14.6667 27.8638 14.6667 27.3334C14.6667 26.8029 14.456 26.2942 14.081 25.9192C13.7059 25.5441 13.1972 25.3334 12.6667 25.3334C12.1363 25.3334 11.6276 25.5441 11.2525 25.9192C10.8775 26.2942 10.6667 26.8029 10.6667 27.3334C10.6667 27.8638 10.8775 28.3725 11.2525 28.7476C11.6276 29.1227 12.1363 29.3334 12.6667 29.3334Z" fill="#BC7C8E" stroke="#BC7C8E" stroke-width="4" stroke-linecap="round" stroke-linejoin="round"/>
<path d="M6.66675 5.33335H29.3334L26.6667 20M6.66675 5.33335L9.33341 20H26.6667M6.66675 5.33335C6.44408 4.44402 5.33341 2.66669 2.66675 2.66669M26.6667 20H6.97341C4.59475 20 3.33341 21.0414 3.33341 22.6667C3.33341 24.292 4.59475 25.3334 6.97341 25.3334H26.0001" stroke="#BC7C8E" stroke-width="4" stroke-linecap="round" stroke-linejoin="round"/>
</g>
<defs>
<clipPath id="clip0_1_109">
<rect width="32" height="32" fill="white"/>
</clipPath>
</defs>
</svg>
