<svg width="301" height="300" viewBox="0 0 301 300" fill="none" xmlns="http://www.w3.org/2000/svg">
<path d="M0 150C0 67.1573 67.1573 0 150 0V0C232.843 0 300 67.1573 300 150V150C300 232.843 232.843 300 150 300V300C67.1573 300 0 232.843 0 150V150Z" fill="#BC7C8E"/>
<path d="M18 150C18 76.8223 77.3223 17.5 150.5 17.5V17.5C223.678 17.5 283 76.8223 283 150V150C283 223.178 223.678 282.5 150.5 282.5V282.5C77.3223 282.5 18 223.178 18 150V150Z" fill="white"/>
<path d="M170.453 125.9C169.52 123.633 168.52 121.5 167.453 119.5C166.52 117.5 165.52 115.633 164.453 113.9C155.12 114.967 148.386 119.567 144.253 127.7C140.12 135.833 138.053 146.433 138.053 159.5C138.053 173.9 140.053 184.633 144.053 191.7C144.453 191.567 145.053 191.5 145.853 191.5C149.853 191.1 153.253 189.633 156.053 187.1C158.986 184.433 161.453 181.167 163.453 177.3C165.586 173.3 167.32 169.1 168.653 164.7L217.253 189.3C212.453 203.7 206.053 215.1 198.053 223.5C190.053 231.9 178.92 236.7 164.653 237.9C163.586 238.033 162.453 238.1 161.253 238.1C160.186 238.1 159.12 238.1 158.053 238.1C148.72 238.1 139.52 236.433 130.453 233.1C121.52 229.9 113.453 224.833 106.253 217.9C99.1865 210.967 93.5198 202.1 89.2531 191.3C84.9865 180.367 82.8531 167.3 82.8531 152.1C82.8531 140.9 84.2531 130.367 87.0531 120.5C89.8531 110.5 93.9198 101.7 99.2531 94.1C104.72 86.5 111.253 80.3667 118.853 75.7C126.586 70.9 135.32 68.1 145.053 67.3C146.12 67.1667 147.186 67.1 148.253 67.1C149.32 67.1 150.386 67.1 151.453 67.1C162.12 67.1 171.786 69.3667 180.453 73.9C189.253 78.4333 196.786 84.4333 203.053 91.9C209.453 99.3667 214.32 107.633 217.653 116.7L190.453 135.9L170.453 125.9ZM169.853 167.7C168.653 171.567 166.986 175.433 164.853 179.3C162.72 183.167 160.12 186.433 157.053 189.1C153.986 191.633 150.32 193.1 146.053 193.5C145.52 193.633 144.92 193.7 144.253 193.7C143.72 193.7 143.12 193.7 142.453 193.7C133.92 193.7 127.386 190.233 122.853 183.3C118.32 176.367 116.053 165.1 116.053 149.5C116.053 135.5 118.32 124.3 122.853 115.9C127.386 107.5 134.72 102.833 144.853 101.9H147.053C153.586 101.9 158.653 103.967 162.253 108.1C165.986 112.233 168.986 117.167 171.253 122.9L195.253 106.1C192.853 99.7 189.72 93.7 185.853 88.1C182.12 82.5 177.32 77.9667 171.453 74.5C165.72 70.9 158.653 69.1 150.253 69.1C149.453 69.1 148.653 69.1 147.853 69.1C147.053 69.1 146.186 69.1667 145.253 69.3C135.786 70.1 127.32 72.8333 119.853 77.5C112.386 82.0333 106.053 88.0333 100.853 95.5C95.6531 102.967 91.6531 111.567 88.8531 121.3C86.1865 130.9 84.8531 141.167 84.8531 152.1C84.8531 167.3 87.0531 180.433 91.4531 191.5C95.9865 202.567 102.32 211.1 110.453 217.1C118.72 223.1 128.32 226.1 139.253 226.1C140.053 226.1 140.853 226.1 141.653 226.1C142.586 226.1 143.52 226.033 144.453 225.9C158.32 224.833 169.053 220.3 176.653 212.3C184.386 204.167 190.453 193.567 194.853 180.5L169.853 167.7Z" fill="#BC7C8E"/>
</svg>
