<svg width="64" height="64" viewBox="0 0 64 64" fill="none" xmlns="http://www.w3.org/2000/svg">
<path d="M10.6667 30.6667L9.37337 30.9893C8.21956 31.2777 7.19526 31.9435 6.46325 32.8809C5.73125 33.8182 5.33355 34.9734 5.33337 36.1627V41.168C5.33355 42.3573 5.73125 43.5124 6.46325 44.4498C7.19526 45.3871 8.21956 46.0529 9.37337 46.3413L14.0134 47.5013C14.2492 47.5601 14.4952 47.5643 14.7329 47.5138C14.9705 47.4632 15.1936 47.3592 15.385 47.2096C15.5765 47.06 15.7314 46.8688 15.838 46.6504C15.9445 46.4321 16 46.1923 16 45.9493V31.3813C16.0001 31.1381 15.9446 30.898 15.8379 30.6794C15.7312 30.4608 15.576 30.2694 15.3842 30.1197C15.1924 29.9701 14.969 29.8662 14.731 29.8158C14.493 29.7655 14.2467 29.7701 14.0107 29.8293L10.6667 30.6667ZM10.6667 30.6667V29.3333C10.6667 23.6754 12.9143 18.2492 16.9151 14.2484C20.9159 10.2476 26.3421 8 32 8C37.658 8 43.0842 10.2476 47.085 14.2484C51.0858 18.2492 53.3334 23.6754 53.3334 29.3333V30.6667M53.3334 30.6667L54.6267 30.9893C55.7805 31.2777 56.8048 31.9435 57.5368 32.8809C58.2688 33.8182 58.6665 34.9734 58.6667 36.1627V41.168C58.6665 42.3573 58.2688 43.5124 57.5368 44.4498C56.8048 45.3871 55.7805 46.0529 54.6267 46.3413L53.3334 46.6667M53.3334 30.6667L49.9867 29.8293C49.7509 29.7706 49.5049 29.7664 49.2672 29.8169C49.0295 29.8675 48.8065 29.9715 48.615 30.121C48.4236 30.2706 48.2687 30.4619 48.1621 30.6802C48.0556 30.8986 48.0001 31.1384 48 31.3813V45.9493C48.0001 46.1923 48.0556 46.4321 48.1621 46.6504C48.2687 46.8688 48.4236 47.06 48.615 47.2096C48.8065 47.3592 49.0295 47.4632 49.2672 47.5138C49.5049 47.5643 49.7509 47.5601 49.9867 47.5013L53.3334 46.6667M53.3334 46.6667V49.3333C53.3334 50.7478 52.7715 52.1044 51.7713 53.1046C50.7711 54.1048 49.4145 54.6667 48 54.6667H40M40 54.6667C40 53.6058 39.5786 52.5884 38.8285 51.8382C38.0783 51.0881 37.0609 50.6667 36 50.6667H28C26.9392 50.6667 25.9218 51.0881 25.1716 51.8382C24.4215 52.5884 24 53.6058 24 54.6667C24 55.7275 24.4215 56.7449 25.1716 57.4951C25.9218 58.2452 26.9392 58.6667 28 58.6667H36C37.0609 58.6667 38.0783 58.2452 38.8285 57.4951C39.5786 56.7449 40 55.7275 40 54.6667Z" stroke="black" stroke-width="4"/>
</svg>
