<svg width="38" height="38" viewBox="0 0 38 38" fill="none" xmlns="http://www.w3.org/2000/svg">
<path d="M7.91663 31.6666V30.0833C7.91663 27.1438 9.08433 24.3247 11.1629 22.2462C13.2414 20.1677 16.0605 19 19 19M19 19C21.9394 19 24.7585 20.1677 26.8371 22.2462C28.9156 24.3247 30.0833 27.1438 30.0833 30.0833V31.6666M19 19C20.6797 19 22.2906 18.3327 23.4783 17.145C24.666 15.9573 25.3333 14.3464 25.3333 12.6666C25.3333 10.9869 24.666 9.37603 23.4783 8.1883C22.2906 7.00057 20.6797 6.33331 19 6.33331C17.3203 6.33331 15.7093 7.00057 14.5216 8.1883C13.3339 9.37603 12.6666 10.9869 12.6666 12.6666C12.6666 14.3464 13.3339 15.9573 14.5216 17.145C15.7093 18.3327 17.3203 19 19 19Z" stroke="#BC7C8E" stroke-width="4" stroke-linecap="round" stroke-linejoin="round"/>
</svg>
